#!OML:ASF X:\für Bonn\!DataBase\2005_08_11_Bastian_Final\c3d\Bastian.ASF
:FULLY-SPECIFIED
:DEGREES
78
root -6.12987 17.0509 4.84015 903.492 32.232 -171.863
lowerback 19.5145 -0.530095 -1.66783
upperback 15.3707 1.7579 2.74149
thorax 5.75145 1.69051 3.74904
lowerneck -12.9353 -14.6154 -24.7711
upperneck -11.02 -15.363 34.8461
head 4.6097 -6.18897 14.2644
rclavicle 9.14409e-015 -1.31198e-014
rhumerus -21.9496 10.7704 -83.3956
rradius 53.0358
rwrist 4.07387
rhand -14.2877 8.65518
rfingers 7.12502
rthumb 11.8517 -20.9894
lclavicle 9.14409e-015 -1.31198e-014
lhumerus -13.5274 -10.9864 88.8507
lradius 26.7993
lwrist 17.1134
lhand -13.3547 -10.1263
lfingers 7.12502
lthumb 12.7513 19.4643
rfemur 9.36849 -8.09475 29.5644
rtibia 42.8746
rfoot -4.33077 9.06891
rtoes -26.2723
lfemur -29.988 -2.57723 -12.7564
ltibia 42.2675
lfoot -2.09169 -14.9251
ltoes -9.96267
79
root -6.06557 17.0588 4.74855 903.393 31.967 -172.033
lowerback 19.6547 -0.53172 -1.77882
upperback 15.3427 1.74677 2.70865
thorax 5.6502 1.68188 3.77259
lowerneck -12.7654 -14.6486 -24.6916
upperneck -11.2179 -15.4106 34.9694
head 4.555 -6.2286 14.2948
rclavicle 8.21975e-014 -5.96354e-014
rhumerus -22.1548 10.6295 -83.3289
rradius 52.4832
rwrist 4.10306
rhand -14.2796 8.58569
rfingers 7.12502
rthumb 11.8595 -21.0585
lclavicle 8.21975e-014 -5.96354e-014
lhumerus -13.3456 -11.6442 88.9099
lradius 27.558
lwrist 17.4758
lhand -13.3544 -10.0091
lfingers 7.12502
lthumb 12.7516 19.5815
rfemur 9.03667 -8.22459 29.4679
rtibia 43.8111
rfoot -3.2009 8.83473
rtoes -26.7111
lfemur -29.6482 -2.88864 -12.9164
ltibia 42.3757
lfoot -2.56475 -14.9433
ltoes -9.41507
80
root -6.00284 17.0657 4.65776 903.302 31.7182 -172.204
lowerback 19.7686 -0.539593 -1.91257
upperback 15.3275 1.7251 2.68953
thorax 5.57784 1.66513 3.82705
lowerneck -12.6954 -14.7046 -24.5827
upperneck -11.3636 -15.4829 35.0453
head 4.52761 -6.27118 14.289
rclavicle 2.51463e-014 3.49861e-014
rhumerus -22.32 10.4723 -83.2338
rradius 51.874
rwrist 4.26061
rhand -14.2887 8.56445
rfingers 7.12502
rthumb 11.8508 -21.0802
lclavicle 2.51463e-014 3.49861e-014
lhumerus -13.1269 -12.2551 88.9702
lradius 28.3045
lwrist 17.8299
lhand -13.3831 -9.9414
lfingers 7.12502
lthumb 12.7239 19.6509
rfemur 8.65526 -8.48954 29.2833
rtibia 44.8069
rfoot -2.02962 8.79933
rtoes -27.3578
lfemur -29.315 -3.18099 -13.0823
ltibia 42.4875
lfoot -3.05634 -14.9605
ltoes -9.09093
81
root -5.9423 17.0716 4.56754 903.205 31.5308 -172.339
lowerback 19.8991 -0.540603 -2.0247
upperback 15.3082 1.71355 2.67335
thorax 5.49175 1.65508 3.8703
lowerneck -12.6046 -14.7257 -24.4651
upperneck -11.501 -15.51 35.1261
head 4.48629 -6.29434 14.2965
rclavicle 5.6753e-014 -2.34566e-014
rhumerus -22.5484 10.3997 -83.1439
rradius 51.2856
rwrist 4.35077
rhand -14.3336 8.59837
rfingers 7.12502
rthumb 11.8074 -21.0488
lclavicle 5.6753e-014 -2.34566e-014
lhumerus -12.9443 -12.8049 89.0357
lradius 29.093
lwrist 18.2015
lhand -13.4496 -9.86783
lfingers 7.12502
lthumb 12.6598 19.7285
rfemur 8.26537 -8.80287 29.0549
rtibia 45.8622
rfoot -0.813943 8.87541
rtoes -28.1368
lfemur -28.9519 -3.41731 -13.225
ltibia 42.5977
lfoot -3.53483 -14.953
ltoes -8.62152
82
root -5.88355 17.0767 4.47873 903.099 31.3626 -172.469
lowerback 20.0298 -0.552396 -2.14461
upperback 15.3026 1.68933 2.64749
thorax 5.42291 1.63919 3.91034
lowerneck -12.5778 -14.7404 -24.2626
upperneck -11.6137 -15.5246 35.1597
head 4.4431 -6.30665 14.2684
rclavicle 3.38928e-014 2.04748e-014
rhumerus -22.7512 10.3536 -83.0789
rradius 50.6677
rwrist 4.47219
rhand -14.398 8.63418
rfingers 7.12502
rthumb 11.7453 -21.0165
lclavicle 3.38928e-014 2.04748e-014
lhumerus -12.7487 -13.3316 89.0572
lradius 29.9087
lwrist 18.5875
lhand -13.5031 -9.82314
lfingers 7.12502
lthumb 12.6082 19.7764
rfemur 7.85851 -9.09978 28.824
rtibia 46.9839
rfoot 0.449727 8.87121
rtoes -28.9858
lfemur -28.5884 -3.68347 -13.3545
ltibia 42.7207
lfoot -3.98798 -14.9145
ltoes -8.05353
83
root -5.82707 17.0811 4.39094 903.004 31.2413 -172.597
lowerback 20.1276 -0.57724 -2.2899
upperback 15.3068 1.64305 2.63043
thorax 5.3842 1.60842 3.97925
lowerneck -12.5909 -14.7408 -24.0973
upperneck -11.703 -15.5097 35.19
head 4.40716 -6.29988 14.2521
rclavicle -3.20043e-014 2.46493e-014
rhumerus -22.8746 10.4042 -83.0004
rradius 50.018
rwrist 4.57225
rhand -14.4369 8.65447
rfingers 7.12502
rthumb 11.7078 -20.9984
lclavicle -3.20043e-014 2.46493e-014
lhumerus -12.5522 -13.5162 89.0958
lradius 30.7441
lwrist 18.7464
lhand -13.5132 -9.77352
lfingers 7.12502
lthumb 12.5984 19.8266
rfemur 7.39588 -9.28518 28.6316
rtibia 48.1741
rfoot 1.70703 8.69456
rtoes -29.987
lfemur -28.2323 -3.93566 -13.4884
ltibia 42.8527
lfoot -4.47818 -14.8548
ltoes -7.71614
84
root -5.77257 17.0831 4.30495 902.877 31.1672 -172.747
lowerback 20.2378 -0.580825 -2.45162
upperback 15.3064 1.62044 2.60886
thorax 5.3324 1.58836 4.04843
lowerneck -12.5491 -14.7223 -23.9234
upperneck -11.8096 -15.4761 35.2171
head 4.35075 -6.29069 14.2401
rclavicle 1.55052e-014 1.45113e-014
rhumerus -23.0019 10.3695 -82.9463
rradius 49.4131
rwrist 4.74864
rhand -14.4253 8.63076
rfingers 7.12502
rthumb 11.719 -21.0214
lclavicle 1.55052e-014 1.45113e-014
lhumerus -12.4032 -13.5997 89.1667
lradius 31.6323
lwrist 18.7972
lhand -13.5138 -9.73065
lfingers 7.12502
lthumb 12.5979 19.8695
rfemur 6.90197 -9.28379 28.4927
rtibia 49.4634
rfoot 2.98648 8.2352
rtoes -30.9106
lfemur -27.8508 -4.14974 -13.6459
ltibia 42.9864
lfoot -4.96586 -14.7703
ltoes -7.2946
85
root -5.72082 17.0838 4.21951 902.764 31.1396 -172.835
lowerback 20.3434 -0.599968 -2.52275
upperback 15.315 1.59208 2.5719
thorax 5.29351 1.57408 4.05116
lowerneck -12.5019 -14.6996 -23.7728
upperneck -11.8983 -15.4407 35.282
head 4.30649 -6.28039 14.2492
rclavicle 1.03368e-014 2.94201e-014
rhumerus -23.1409 10.3879 -82.9492
rradius 48.943
rwrist 4.86298
rhand -14.4238 8.44614
rfingers 7.12502
rthumb 11.7204 -21.206
lclavicle 1.03368e-014 2.94201e-014
lhumerus -12.2628 -13.8095 89.1995
lradius 32.5337
lwrist 18.9427
lhand -13.5387 -9.6457
lfingers 7.12502
lthumb 12.5738 19.9559
rfemur 6.35124 -9.22408 28.4299
rtibia 50.8559
rfoot 4.27215 7.65496
rtoes -31.6259
lfemur -27.4456 -4.35081 -13.7539
ltibia 43.1025
lfoot -5.40557 -14.6776
ltoes -6.83812
86
root -5.67088 17.087 4.13492 902.653 31.1585 -172.949
lowerback 20.4019 -0.609962 -2.61232
upperback 15.3281 1.57081 2.54356
thorax 5.28287 1.55971 4.07399
lowerneck -12.419 -14.6673 -23.6525
upperneck -12.0168 -15.3882 35.3167
head 4.24055 -6.26613 14.2575
rclavicle -2.04748e-014 -1.05356e-014
rhumerus -23.217 10.3028 -82.9198
rradius 48.4016
rwrist 5.0299
rhand -14.3491 8.31708
rfingers 7.12502
rthumb 11.7925 -21.3309
lclavicle -2.04748e-014 -1.05356e-014
lhumerus -12.1305 -14.078 89.2776
lradius 33.4185
lwrist 19.1703
lhand -13.6 -9.66617
lfingers 7.12502
lthumb 12.5148 19.9391
rfemur 5.64438 -9.21031 28.3475
rtibia 52.3875
rfoot 5.57223 7.07076
rtoes -32.6023
lfemur -27.0267 -4.53264 -13.8903
ltibia 43.1843
lfoot -5.84854 -14.5432
ltoes -6.35973
87
root -5.621 17.093 4.04996 902.532 31.2027 -173.06
lowerback 20.442 -0.621879 -2.69358
upperback 15.3495 1.54915 2.50695
thorax 5.29125 1.54601 4.08414
lowerneck -12.3405 -14.6239 -23.5395
upperneck -12.1042 -15.326 35.3621
head 4.18369 -6.24656 14.274
rclavicle 4.1546e-014 -6.10269e-014
rhumerus -23.2261 10.1372 -82.9012
rradius 47.792
rwrist 5.20709
rhand -14.2807 8.24867
rfingers 7.12502
rthumb 11.8584 -21.3955
lclavicle 4.1546e-014 -6.10269e-014
lhumerus -11.9746 -14.2946 89.3512
lradius 34.2657
lwrist 19.3057
lhand -13.6865 -9.76265
lfingers 7.12502
lthumb 12.4313 19.8477
rfemur 4.83969 -9.24938 28.2594
rtibia 54.0263
rfoot 6.8756 6.55685
rtoes -33.3349
lfemur -26.5673 -4.73073 -14.0218
ltibia 43.2286
lfoot -6.29676 -14.3874
ltoes -6.03215
